<svg width="141" height="63" viewBox="0 0 141 63" fill="none" xmlns="http://www.w3.org/2000/svg">
<path d="M50.1054 55.1628H45.0978V58.9902C45.0978 59.1624 45.0438 59.6244 44.4534 59.6244L44.1384 59.5386C43.8618 59.3994 43.827 59.1954 43.827 58.9902V50.3904C43.827 50.2134 43.8768 49.7574 44.4624 49.7574L44.799 49.8408C45.0612 49.9782 45.0984 50.184 45.0984 50.3904V54.0282H50.106V50.3904L50.1762 50.0778C50.214 49.9956 50.3784 49.758 50.742 49.758C51.3414 49.758 51.3948 50.214 51.3948 50.391V58.9902L51.3246 59.301C51.27 59.43 51.087 59.6244 50.742 59.6244C50.1762 59.6244 50.1054 59.1624 50.1054 58.9902V55.1628Z" fill="#001646"/>
<path d="M57.3588 57.9234C57.8388 57.306 57.8616 56.4246 57.8616 55.9992C57.8616 54.6642 57.4266 53.3388 55.7538 53.3388C55.3812 53.3388 54.6546 53.3928 54.1374 54.117C53.775 54.6432 53.6724 55.3698 53.6724 56.0142C53.6724 56.7078 53.7924 57.4626 54.1734 57.9582C54.4488 58.3038 54.9828 58.6602 55.7664 58.6602C56.3826 58.6608 56.9886 58.413 57.3588 57.9234ZM58.2612 58.6794C57.4266 59.5902 56.3982 59.6742 55.7364 59.6742C55.0278 59.6742 54.036 59.577 53.2566 58.7142C52.4016 57.7836 52.3776 56.5182 52.3776 56.0142C52.3776 55.3518 52.4436 54.198 53.2272 53.307C54.0816 52.3626 55.218 52.2804 55.8054 52.2804C57.825 52.2804 59.1684 53.568 59.1684 55.917C59.1684 56.5338 59.0976 57.738 58.2612 58.6794Z" fill="#001646"/>
<path d="M63.0473 55.41C63.7847 55.6266 65.1197 56.0148 65.1197 57.5088C65.1197 58.3878 64.6643 58.9188 64.2551 59.1954C63.7307 59.553 63.0077 59.6748 62.3765 59.6748C61.9781 59.6748 61.0031 59.637 60.3023 59.0418C59.6765 58.5084 59.5463 57.7548 59.5463 57.5628C59.5463 57.1008 60.0221 56.9838 60.2231 56.9838C60.5399 56.9838 60.6209 57.1536 60.6881 57.2874C60.8771 57.8064 60.8963 57.8652 60.9869 58.014C61.3055 58.4946 61.8761 58.6878 62.4575 58.6878C63.2669 58.6878 63.8663 58.2636 63.8663 57.6168C63.8663 56.9088 63.2375 56.724 62.5415 56.5188L61.7411 56.2878C60.9869 56.0382 59.8223 55.6596 59.8223 54.339C59.8223 53.9778 59.9585 52.2954 62.3225 52.2954C64.6385 52.2954 65.0039 53.8752 65.0039 54.1482C65.0039 54.5598 64.6391 54.6828 64.4303 54.6828C64.1291 54.6828 64.0481 54.5292 63.8453 54.1356C63.7133 53.9034 63.3491 53.2554 62.2667 53.2554C62.1017 53.2554 61.7273 53.2728 61.4675 53.4462C61.2395 53.5998 61.0673 53.8752 61.0673 54.1788C61.0673 54.8034 61.6211 54.972 62.2511 55.1634L63.0473 55.41Z" fill="#001646"/>
<path d="M69.2886 53.3388C67.9992 53.3388 67.299 54.3246 67.299 55.9008C67.299 57.4956 67.9518 58.6608 69.2718 58.6608C69.9966 58.6608 70.4646 58.2882 70.7286 57.9294C71.1072 57.4104 71.1948 56.6418 71.1948 55.9992C71.1948 55.2738 71.1414 53.3388 69.2886 53.3388ZM66.0474 52.965C66.0474 52.7916 66.1002 52.3488 66.6816 52.3488C66.7362 52.3488 66.873 52.3488 67.0086 52.419C67.3248 52.5714 67.3248 52.8294 67.3248 53.238C67.8708 52.5828 68.5536 52.2804 69.4422 52.2804C71.1948 52.2804 72.4968 53.628 72.4968 55.968C72.4968 57.6672 71.7588 59.6736 69.5844 59.6736C68.4498 59.6736 67.9176 59.2224 67.3242 58.6974V61.566C67.3242 61.7466 67.2636 62.1978 66.681 62.1978L66.3684 62.1276C66.0918 61.974 66.0468 61.77 66.0468 61.566V52.965H66.0474Z" fill="#001646"/>
<path d="M74.7474 59.0053L74.6759 59.2993C74.6213 59.4295 74.4557 59.6251 74.1281 59.6251C73.7519 59.6251 73.4939 59.3851 73.4939 59.0053V52.9525C73.4939 52.7899 73.5485 52.3477 74.1113 52.3477C74.6915 52.3477 74.7474 52.7893 74.7474 52.9525V59.0053ZM74.1119 49.7743C74.5097 49.7743 74.8829 50.0473 74.8829 50.5549C74.8829 51.0235 74.5745 51.3121 74.1119 51.3121C73.6139 51.3121 73.3409 50.9743 73.3409 50.5549C73.3403 50.0635 73.6841 49.7743 74.1119 49.7743Z" fill="#001646"/>
<path d="M76.9376 53.5008H76.208C76.0622 53.5008 75.6908 53.4468 75.6908 52.965C75.6908 52.4706 76.0622 52.4352 76.208 52.4352H76.9514V50.8284C76.9514 50.6478 77.0084 50.2368 77.564 50.2368C78.1574 50.2368 78.1988 50.634 78.1988 50.8284V52.4352H79.0532C79.208 52.4352 79.5698 52.4706 79.5698 52.965C79.5698 53.4468 79.202 53.5008 79.0532 53.5008H78.1988V56.9838C78.1988 57.8064 78.209 57.906 78.248 58.0656C78.347 58.47 78.6086 58.539 78.9818 58.5624C79.31 58.5798 79.6532 58.6068 79.6532 59.0874C79.6532 59.5656 79.208 59.6244 78.8432 59.6244C76.937 59.6244 76.937 58.593 76.937 57.5196V53.5008H76.9376Z" fill="#001646"/>
<path d="M82.9954 56.2867C82.7602 56.3287 82.4866 56.3983 82.2958 56.4637C82.0882 56.5339 81.4702 56.7403 81.4702 57.5101C81.4702 58.2637 82.0684 58.6435 82.7518 58.6435C83.5324 58.6435 84.0508 58.1983 84.2572 57.9241C84.6136 57.4249 84.6304 56.7805 84.6466 55.8649C84.3862 55.9693 84.2866 55.9999 83.7076 56.1253L82.9954 56.2867ZM85.8106 59.0719C85.7962 59.2231 85.7674 59.6239 85.2622 59.6239C85.024 59.6053 84.8212 59.5219 84.7372 59.3155C84.6952 59.2087 84.6844 59.1559 84.6844 58.6579C84.0124 59.5213 83.0836 59.6737 82.4788 59.6737C81.0472 59.6737 80.17 58.7983 80.17 57.4939C80.17 55.8637 81.5224 55.6051 82.2592 55.4515L83.4232 55.1995C83.8882 55.1083 84.1306 55.0531 84.2566 55.0099C84.5452 54.9253 84.646 54.8191 84.646 54.4741C84.646 53.3071 83.461 53.3071 83.2198 53.3071C82.0228 53.3071 81.8134 53.9023 81.6946 54.2713C81.6586 54.4609 81.5872 54.7129 81.1132 54.7129C80.6134 54.7129 80.4772 54.4249 80.4772 54.1783C80.4772 53.9017 80.6494 53.5573 80.7646 53.3791C81.3124 52.5415 82.2748 52.2925 83.2192 52.2925C84.0106 52.2925 84.8332 52.4461 85.3444 53.0317C85.8088 53.5837 85.8088 54.2821 85.8088 54.9535V59.0719H85.8106Z" fill="#001646"/>
<path d="M88.417 59.0053C88.417 59.1625 88.3546 59.6239 87.7816 59.6239C87.427 59.6239 87.1516 59.4175 87.1516 59.0053V50.3755C87.1516 50.2135 87.2182 49.7743 87.7816 49.7743C88.3546 49.7743 88.417 50.2135 88.417 50.3755V59.0053Z" fill="#001646"/>
<path d="M93.052 55.41C93.7882 55.6266 95.113 56.0148 95.113 57.5088C95.113 58.3878 94.669 58.9188 94.255 59.1954C93.7408 59.553 93.0034 59.6748 92.3782 59.6748C91.978 59.6748 91.0072 59.637 90.307 59.0418C89.6728 58.5084 89.5522 57.7548 89.5522 57.5628C89.5522 57.1008 90.0178 56.9838 90.226 56.9838C90.5344 56.9838 90.6172 57.1536 90.6886 57.2874C90.8794 57.8064 90.8939 57.8652 90.9923 58.014C91.3061 58.4946 91.8862 58.6878 92.4526 58.6878C93.2644 58.6878 93.8764 58.2636 93.8764 57.6168C93.8764 56.9088 93.2428 56.724 92.539 56.5188L91.7494 56.2878C90.9922 56.0382 89.824 55.6596 89.824 54.339C89.824 53.9778 89.9626 52.2954 92.3164 52.2954C94.633 52.2954 95.0116 53.8752 95.0116 54.1482C95.0116 54.5598 94.633 54.6828 94.4296 54.6828C94.1338 54.6828 94.0474 54.5292 93.8422 54.1356C93.7228 53.9034 93.3514 53.2554 92.2654 53.2554C92.1046 53.2554 91.7338 53.2728 91.4716 53.4462C91.2358 53.5998 91.0792 53.8752 91.0792 54.1788C91.0792 54.8034 91.6246 54.972 92.2516 55.1634L93.052 55.41Z" fill="#001646"/>
<path d="M97.1541 43.5901C97.1433 43.3945 97.1247 43.2001 97.1247 43.0099C97.1247 42.8197 97.1085 42.6313 97.1085 42.4381V38.5507C97.1085 38.2555 97.1247 37.8673 97.3815 37.5895C97.5237 37.4467 97.7691 37.2943 98.1231 37.2943C98.3859 37.2943 98.5527 37.3813 98.6049 37.3879C99.1149 37.6513 99.1323 38.1835 99.1323 38.5819V45.8239C99.1323 46.3405 99.0831 47.1775 97.8105 47.1775C97.0563 47.1775 96.8355 46.7989 96.4533 46.1485L93.2655 40.7311C93.2991 41.1601 93.3111 41.2441 93.3111 41.7601V45.7141C93.3111 46.2205 93.2985 47.1775 92.2995 47.1775C91.8561 47.1775 91.6515 46.9609 91.5987 46.9057C91.2915 46.5985 91.2915 46.1665 91.2915 45.8089V38.6917C91.2915 38.3731 91.2915 38.0719 91.4745 37.7881C91.7025 37.4293 92.0925 37.2949 92.5575 37.2949C93.3381 37.2949 93.5721 37.5541 93.8841 38.0845L97.1541 43.5901Z" fill="#001646"/>
<path d="M104.816 42.6319C104.757 42.3961 104.727 42.1513 104.567 41.9137C104.31 41.5327 103.887 41.3653 103.419 41.3653C102.339 41.3653 102.087 42.1705 101.935 42.6319H104.816ZM101.936 44.1247C101.979 44.4529 102.049 44.8621 102.378 45.2041C102.819 45.6691 103.324 45.6691 103.493 45.6691C104.037 45.6691 104.31 45.4663 104.459 45.3313L104.708 45.0943C104.915 44.9149 105.123 44.8609 105.296 44.8609C105.778 44.8609 106.184 45.2755 106.184 45.7717C106.184 46.0519 106.052 46.3567 105.637 46.6495C105.005 47.0947 104.212 47.2669 103.431 47.2669C100.76 47.2669 99.8193 45.2761 99.8193 43.5577C99.8193 41.4493 101.21 39.7993 103.456 39.7993C105.977 39.7993 106.722 41.8279 106.722 43.1779C106.722 44.0929 106.233 44.1073 105.86 44.1235H101.936V44.1247Z" fill="#001646"/>
<path d="M109.805 39.9397C110.4 39.9397 110.525 39.9397 110.702 40.0255C110.817 40.0909 111.085 40.2811 111.085 40.6945C111.085 40.8307 111.042 40.9549 110.992 41.0695C110.786 41.4631 110.513 41.4631 109.805 41.4631V44.8789C109.805 45.4789 110.03 45.5491 110.525 45.5491C111.085 45.5491 111.193 45.9781 111.193 46.2625C111.193 47.0959 110.245 47.1499 109.717 47.1499C107.866 47.1499 107.815 46.0681 107.815 45.2431V41.4625C107.589 41.4625 107.369 41.4625 107.178 41.3641C107.113 41.3263 106.805 41.1589 106.805 40.6939C106.805 40.5721 106.82 40.4491 106.871 40.3519C107.06 39.9391 107.477 39.9391 107.814 39.9391V38.9629C107.832 38.6509 107.832 38.2753 108.077 37.9999C108.14 37.9495 108.35 37.6903 108.82 37.6903C108.958 37.6903 109.099 37.7185 109.199 37.7581C109.787 37.9783 109.787 38.5657 109.804 38.9779V39.9397H109.805Z" fill="#001646"/>
<path d="M114.087 43.3172C114.2 43.8176 114.232 44.0084 114.331 44.8946C114.438 44.1446 114.491 44.003 114.622 43.3958L115.259 40.7084C115.36 40.3814 115.484 39.9092 116.379 39.9092C117.242 39.9092 117.375 40.418 117.472 40.7624L118.145 43.631C118.253 44.0936 118.286 44.2436 118.335 44.8202C118.401 44.3138 118.435 44.1782 118.525 43.7504L119.214 40.8146C119.297 40.4702 119.428 39.9086 120.152 39.9086C120.722 39.9086 121.179 40.28 121.179 40.8464C121.179 41.0036 121.127 41.1626 121.097 41.327L119.735 46.1894C119.544 46.8236 119.329 47.1644 118.518 47.1644C117.564 47.1644 117.429 46.6628 117.324 46.304L116.685 43.7504C116.495 42.9854 116.472 42.8198 116.363 42.0806C116.253 42.791 116.222 42.9608 116.031 43.7504L115.433 46.1504C115.293 46.6508 115.16 47.1638 114.221 47.1638C113.302 47.1638 113.178 46.7702 113.011 46.1828L111.645 41.432C111.585 41.2424 111.537 41.0336 111.537 40.8308C111.537 40.2284 111.967 39.9086 112.5 39.9086C113.219 39.9086 113.387 40.5272 113.477 40.871L114.087 43.3172Z" fill="#001646"/>
<path d="M123.95 41.7541C123.302 42.2899 123.302 43.2001 123.302 43.4593C123.302 44.7589 123.846 45.6037 124.919 45.6037C125.747 45.6037 126.111 45.0319 126.231 44.8513C126.5 44.3989 126.528 43.8637 126.528 43.4401C126.528 42.9949 126.482 42.5623 126.278 42.1699C125.857 41.4073 125.107 41.4073 124.928 41.4073C124.701 41.4073 124.302 41.4331 123.95 41.7541ZM125.009 39.7867C126.02 39.7867 126.998 40.1617 127.667 40.9009C128.183 41.4493 128.605 42.3799 128.605 43.4767C128.605 45.7231 126.963 47.2339 124.892 47.2339C122.331 47.2339 121.244 45.3427 121.244 43.4767C121.244 41.2795 122.792 39.7867 125.009 39.7867Z" fill="#001646"/>
<path d="M129.37 41.1601C129.37 40.8307 129.37 40.4497 129.666 40.1455C129.795 40.0237 130.028 39.8851 130.343 39.8851C130.521 39.8851 130.683 39.9247 130.783 39.9811C131.307 40.2439 131.307 40.8601 131.307 41.0911V41.2609C131.364 41.0347 131.449 40.8307 131.58 40.6423C131.884 40.1089 132.429 39.8359 133.005 39.8359C133.742 39.8359 134.017 40.2811 134.017 40.7467C134.017 41.0059 133.939 41.2459 133.791 41.3971C133.586 41.5999 133.312 41.6395 133.063 41.6527C132.87 41.6701 132.683 41.6701 132.51 41.6905C131.449 41.8747 131.449 42.9619 131.438 43.7281V45.8761C131.438 46.1899 131.438 46.6003 131.164 46.8769C130.983 47.0611 130.718 47.1649 130.42 47.1649C130.343 47.1649 130.22 47.1511 130.068 47.1133C129.377 46.9237 129.37 46.3033 129.37 45.8755V41.1601Z" fill="#001646"/>
<path d="M136.342 42.6385L138.445 40.3345C138.65 40.1203 138.874 39.8845 139.273 39.8845C139.783 39.8845 140.175 40.3147 140.175 40.7797C140.175 41.1745 139.93 41.4067 139.759 41.5849L138.446 42.8203L140.066 45.2743C140.258 45.5497 140.401 45.7783 140.401 46.1251C140.401 46.8097 139.784 47.1409 139.324 47.1409C138.783 47.1409 138.511 46.7017 138.316 46.3885L137.023 44.1781L136.342 44.8201V45.9439C136.342 46.1245 136.342 46.2757 136.289 46.4233C136.188 46.9225 135.802 47.1403 135.368 47.1403C135.283 47.1403 135.143 47.1283 134.981 47.0749C134.353 46.8673 134.338 46.3201 134.338 45.9439V38.4421C134.338 38.1313 134.353 37.7893 134.628 37.5247C134.778 37.3627 135.045 37.2517 135.334 37.2517C135.524 37.2517 135.67 37.2937 135.802 37.3477C136.33 37.5913 136.33 38.1013 136.342 38.4295V42.6385Z" fill="#001646"/>
<path d="M43.8298 38.7901C43.8298 38.4055 43.8424 37.7869 44.3584 37.4551C44.6854 37.2655 45.2212 37.2499 45.5302 37.2499C46.7464 37.2499 46.9384 37.6543 47.1286 38.3599L47.9116 41.1445C48.1732 42.1345 48.2404 42.3787 48.7534 44.9005C49.0648 43.3945 49.117 43.1635 49.5736 41.3263L50.3158 38.5405C50.5192 37.7587 50.7388 37.2505 51.892 37.2505C53.3986 37.2505 53.6986 37.7191 53.6986 38.8393V45.8785C53.6986 46.2769 53.68 47.1499 52.7374 47.1499C51.7258 47.1499 51.7096 46.2769 51.7096 45.8611V42.9853C51.7258 42.0277 51.7378 41.7757 51.8308 39.5269C51.4096 41.4631 51.2608 42.0349 50.8048 43.6975L50.128 46.1491C49.9714 46.7011 49.7884 47.1499 48.7348 47.1499C47.7352 47.1499 47.5552 46.7149 47.392 46.1341L46.7464 43.8631C46.2112 41.8453 46.1656 41.6719 45.6874 39.5269C45.754 41.0527 45.7678 41.4325 45.802 43.1635V45.8611C45.802 46.2769 45.802 47.1499 44.8108 47.1499C43.8418 47.1499 43.8292 46.2871 43.8292 45.8503V38.7901H43.8298Z" fill="#001646"/>
<path d="M55.1388 41.0905C55.1388 40.5715 55.2582 40.3345 55.413 40.1743C55.53 40.0465 55.7556 39.9001 56.1288 39.9001C56.2854 39.9001 56.4378 39.9247 56.5632 39.9811C57.1122 40.2145 57.1272 40.7461 57.1272 41.0755V45.8791C57.1272 46.1887 57.1122 46.4803 56.9196 46.7707C56.7012 47.0755 56.4102 47.1493 56.1366 47.1493C55.9578 47.1493 55.8378 47.1295 55.7388 47.0827C55.1508 46.8685 55.1382 46.2763 55.1382 45.8953V41.0905H55.1388ZM55.1388 38.1859C55.1388 37.6387 55.5858 37.1803 56.1372 37.1803C56.6754 37.1803 57.1272 37.6081 57.1272 38.1859C57.1272 38.7505 56.685 39.1855 56.1372 39.1855C55.566 39.1855 55.1388 38.7187 55.1388 38.1859Z" fill="#001646"/>
<path d="M58.5525 41.1601C58.5525 40.8307 58.5525 40.4497 58.8573 40.1455C58.9809 40.0237 59.1993 39.8851 59.5281 39.8851C59.7003 39.8851 59.8551 39.9247 59.9523 39.9811C60.4893 40.2439 60.4893 40.8601 60.4893 41.0911V41.2609C60.5541 41.0347 60.6351 40.8307 60.7623 40.6423C61.0599 40.1089 61.6083 39.8359 62.1891 39.8359C62.9265 39.8359 63.2001 40.2811 63.2001 40.7467C63.2001 41.0059 63.1173 41.2459 62.9637 41.3971C62.7609 41.5999 62.4831 41.6395 62.2425 41.6527C62.0511 41.6701 61.8657 41.6701 61.6905 41.6905C60.6351 41.8747 60.6267 42.9619 60.6093 43.7281V45.8761C60.6093 46.1899 60.6093 46.6003 60.3357 46.8769C60.1641 47.0611 59.8911 47.1649 59.6103 47.1649C59.5281 47.1649 59.4063 47.1511 59.2533 47.1133C58.5645 46.9237 58.5525 46.3033 58.5525 45.8755V41.1601Z" fill="#001646"/>
<path d="M67.6842 43.629C67.3956 43.7532 67.2858 43.7964 66.3696 43.9698C65.8062 44.0952 65.0874 44.244 65.0874 44.9166C65.0874 45.396 65.478 45.669 66.0336 45.669C66.2406 45.669 66.5322 45.642 66.876 45.4794C67.4076 45.2322 67.5774 44.9334 67.6842 44.7588V43.629ZM69.6852 45.6564C69.6738 46.1898 69.6564 47.1648 68.6904 47.1648C68.0406 47.1648 67.8678 46.6842 67.7508 46.3572C67.5984 46.4946 67.5228 46.5942 67.3398 46.716C66.7788 47.0826 66.1668 47.2494 65.55 47.2494C64.0248 47.2494 63.0624 46.3422 63.0624 44.9856C63.0624 44.5908 63.1494 44.3154 63.2154 44.1396C63.4068 43.644 63.7344 43.3956 63.954 43.2594C64.5042 42.9126 65.067 42.8058 66.615 42.546C67.3188 42.4242 67.5984 42.342 67.5984 41.967C67.5984 41.3544 66.7236 41.3544 66.462 41.3544C65.6568 41.3544 65.478 41.5722 65.2764 41.8476C65.1768 41.9568 64.9326 42.2412 64.5282 42.2412C64.095 42.2412 63.639 41.9154 63.639 41.3976C63.639 40.7334 64.368 39.8016 66.6312 39.8016C67.8876 39.8016 68.505 40.1202 68.895 40.4508C69.6846 41.1198 69.6846 42.0294 69.6846 42.7128V45.6564H69.6852Z" fill="#001646"/>
<path d="M75.1616 44.9497C75.2816 44.7109 75.4346 44.3839 75.9152 44.3839C76.3604 44.3839 76.8974 44.6863 76.8974 45.3133C76.8974 45.9991 75.9518 47.2855 73.9796 47.2855C71.561 47.2855 70.457 45.6193 70.457 43.5985C70.457 40.9843 72.1448 39.7855 74.0804 39.7855C74.8388 39.7855 75.5972 39.9697 76.2794 40.5553C76.6886 40.9153 76.8614 41.2255 76.8614 41.6005C76.8614 42.1513 76.406 42.4933 75.9518 42.4933C75.6614 42.4933 75.4574 42.3655 75.3176 42.2191L75.0776 41.9131C74.9252 41.7253 74.6252 41.4175 74.0156 41.4175C73.7342 41.4175 73.5146 41.4787 73.2656 41.6389C72.9926 41.8063 72.5126 42.1885 72.5126 43.5583C72.5126 44.4841 72.743 45.5857 74.0846 45.5857C74.7872 45.5863 74.9894 45.2251 75.1616 44.9497Z" fill="#001646"/>
<path d="M79.847 45.9457C79.847 46.2349 79.847 47.1643 78.848 47.1643C77.8412 47.1643 77.8412 46.3567 77.8412 45.9595V38.4295C77.8574 38.1187 77.8718 37.7437 78.1772 37.4839C78.3386 37.3447 78.5582 37.2661 78.8306 37.2661C78.9014 37.2661 79.0658 37.2661 79.2578 37.3447C79.8302 37.5697 79.8302 38.1193 79.847 38.4835V45.9457Z" fill="#001646"/>
<path d="M85.7343 42.6319C85.6791 42.3961 85.6335 42.1513 85.4823 41.9137C85.2195 41.5327 84.7989 41.3653 84.3279 41.3653C83.2449 41.3653 83.0013 42.1705 82.8465 42.6319H85.7343ZM82.8465 44.1247C82.8885 44.4529 82.9587 44.8621 83.2911 45.2041C83.7267 45.6691 84.2373 45.6691 84.3993 45.6691C84.9441 45.6691 85.2195 45.4663 85.3719 45.3313L85.6185 45.0943C85.8255 44.9149 86.0283 44.8609 86.2083 44.8609C86.6889 44.8609 87.1053 45.2755 87.1053 45.7717C87.1053 46.0519 86.9661 46.3567 86.5527 46.6495C85.9203 47.0947 85.1277 47.2669 84.3435 47.2669C81.6633 47.2669 80.7369 45.2761 80.7369 43.5577C80.7369 41.4493 82.1259 39.7993 84.3741 39.7993C86.8989 39.7993 87.6351 41.8279 87.6351 43.1779C87.6351 44.0929 87.1413 44.1073 86.7771 44.1235H82.8465V44.1247Z" fill="#001646"/>
<path d="M45.7481 29.8057C45.7481 31.9969 46.8839 32.9887 48.2735 32.9887C49.1615 32.9887 49.7897 32.5753 50.1227 32.0593C50.2001 31.9219 50.2655 31.7707 50.3657 31.6309C50.4713 31.4605 50.6795 31.2451 51.0785 31.2451C51.5585 31.2451 52.1729 31.5775 52.1729 32.2513C52.1729 32.3401 52.1663 32.5219 52.0823 32.7517C51.9275 33.1267 51.6251 33.4921 51.3263 33.7585C50.3159 34.6501 49.1621 34.7863 48.2549 34.7863C46.8287 34.7863 46.1285 34.4125 45.7193 34.1701C44.5361 33.4693 43.4309 31.9975 43.4309 29.7247C43.4309 26.9659 45.1529 24.7177 48.2021 24.7177C48.9557 24.7177 49.6499 24.8557 50.1767 25.0621C50.9705 25.3747 51.9611 26.1439 51.9611 26.9275C51.9611 27.5575 51.4097 27.9433 50.9531 27.9433C50.5445 27.9433 50.2979 27.6499 50.2001 27.5461L49.9001 27.2119C49.7189 26.9977 49.3001 26.5297 48.2387 26.5297C46.0571 26.5297 45.7481 28.6831 45.7481 29.8057Z" fill="#001646"/>
<path d="M55.0315 28.2006C55.2403 27.9798 55.8211 27.3907 56.9383 27.3907C57.3493 27.3907 57.7837 27.462 58.2109 27.7206C59.2561 28.3704 59.2561 29.367 59.2699 30.0144V33.4854C59.2699 33.7962 59.2567 34.1568 59.0011 34.4286C58.8415 34.587 58.5931 34.7016 58.2937 34.7016C58.0207 34.7016 57.7687 34.623 57.6079 34.4826C57.3031 34.221 57.2929 33.8382 57.2803 33.5076V30.6846C57.2803 30.0702 57.2803 29.1222 56.2207 29.1222C55.9057 29.1222 55.6849 29.2326 55.5673 29.3136C55.0399 29.679 55.0309 30.3426 55.0309 30.7908V33.384C55.0309 33.7014 55.0147 34.0698 54.8125 34.347C54.6217 34.5858 54.3307 34.701 54.0241 34.701C53.9863 34.701 53.8171 34.701 53.6605 34.6494C53.0257 34.4502 53.0125 33.8796 53.0125 33.4848V26.0071C53.0125 25.6783 53.0257 25.3363 53.3167 25.0615C53.5057 24.8941 53.7679 24.8167 54.0043 24.8167C54.1081 24.8167 54.2467 24.8167 54.4153 24.8833C55.0159 25.1293 55.0321 25.7082 55.0321 26.0724V28.2006H55.0315Z" fill="#001646"/>
<path d="M60.5908 28.6261C60.5908 28.1041 60.7162 27.8731 60.8686 27.7075C60.9886 27.5827 61.2082 27.4327 61.5862 27.4327C61.7422 27.4327 61.8982 27.4627 62.0164 27.5167C62.5684 27.7531 62.581 28.2901 62.581 28.6147V33.4165C62.581 33.7273 62.5684 34.0165 62.377 34.3057C62.152 34.6033 61.8646 34.6855 61.5904 34.6855C61.4158 34.6855 61.2964 34.6597 61.1962 34.6231C60.6088 34.3957 60.5902 33.8101 60.5902 33.4279V28.6261H60.5908ZM60.5908 25.7179C60.5908 25.1671 61.045 24.7177 61.591 24.7177C62.1334 24.7177 62.581 25.1461 62.581 25.7179C62.581 26.2813 62.1436 26.7223 61.591 26.7223C61.018 26.7223 60.5908 26.2543 60.5908 25.7179Z" fill="#001646"/>
<path d="M65.8765 33.4866C65.8765 33.7668 65.8765 34.7016 64.8703 34.7016C63.8713 34.7016 63.8713 33.8964 63.8713 33.492V25.9662C63.8869 25.6482 63.9043 25.2786 64.1965 25.0206C64.3675 24.8832 64.5871 24.801 64.8595 24.801C64.9321 24.801 65.0893 24.801 65.2777 24.8826C65.8597 25.1022 65.8597 25.6482 65.8759 26.0196V33.4866H65.8765Z" fill="#001646"/>
<path d="M68.8484 30.9714C68.8484 31.4124 68.9474 32.2626 69.4118 32.7516C69.7244 33.0822 70.0994 33.1392 70.3742 33.1392C71.8376 33.1392 71.8376 31.395 71.8376 31.0962C71.8376 30.603 71.7452 30.1356 71.5742 29.805C71.2196 29.0766 70.5818 28.9926 70.2902 28.9926C69.209 28.9926 68.8484 30.0222 68.8484 30.9714ZM71.7992 26.0196C71.813 25.7766 71.813 25.5276 71.9198 25.32C72.0896 24.975 72.4184 24.801 72.7982 24.801C72.9488 24.801 73.1168 24.8268 73.2536 24.8928C73.7714 25.1454 73.7894 25.6254 73.8032 26.037V33.384C73.7894 33.8244 73.7714 34.6848 72.827 34.6848C72.5546 34.6722 72.2924 34.6224 72.1022 34.386C71.9198 34.1682 71.9036 33.9654 71.8994 33.7824C71.5268 34.305 70.9388 34.8102 69.8936 34.8102C68.3312 34.8102 66.8384 33.5736 66.8384 30.9708C66.8384 29.0628 67.7936 27.348 69.8516 27.348C70.868 27.348 71.4272 27.7908 71.7986 28.0614V26.0196H71.7992Z" fill="#001646"/>
<path d="M74.8146 28.6974C74.8146 28.3704 74.8146 27.9804 75.1134 27.6804C75.2412 27.5568 75.4566 27.4218 75.789 27.4218C75.9678 27.4218 76.1214 27.4614 76.2126 27.516C76.7448 27.7722 76.7448 28.3914 76.7448 28.626V28.7898C76.815 28.5738 76.896 28.3704 77.0178 28.1706C77.3232 27.6378 77.8722 27.363 78.45 27.363C79.1928 27.363 79.4658 27.819 79.4658 28.287C79.4658 28.5438 79.3824 28.7826 79.2288 28.9272C79.0224 29.1324 78.7482 29.1786 78.5028 29.19C78.3144 29.1996 78.1308 29.1996 77.9574 29.2326C76.8954 29.4066 76.881 30.4884 76.8756 31.2588V33.414C76.8756 33.7266 76.8756 34.1406 76.5984 34.4124C76.431 34.587 76.1586 34.7016 75.867 34.7016C75.7884 34.7016 75.6588 34.6878 75.5136 34.65C74.8314 34.4508 74.814 33.8376 74.814 33.4134V28.6974H74.8146Z" fill="#001646"/>
<path d="M84.2938 30.1609C84.2398 29.9311 84.1942 29.6785 84.0484 29.4505C83.7844 29.0629 83.3656 28.9009 82.8892 28.9009C81.8056 28.9009 81.5668 29.7109 81.4132 30.1609H84.2938ZM81.4132 31.6555C81.4564 31.9879 81.523 32.3989 81.853 32.7445C82.2874 33.2119 82.7992 33.2119 82.9582 33.2119C83.506 33.2119 83.7838 33.0031 83.9326 32.8675L84.1858 32.6305C84.3898 32.4559 84.5968 32.3983 84.7744 32.3983C85.2556 32.3983 85.6654 32.8087 85.6654 33.3018C85.6654 33.5893 85.528 33.8947 85.117 34.1749C84.4822 34.6333 83.6944 34.7959 82.9036 34.7959C80.2306 34.7959 79.297 32.8081 79.297 31.0957C79.297 28.9837 80.6872 27.3427 82.9378 27.3427C85.4572 27.3427 86.1994 29.3683 86.1994 30.7069C86.1994 31.6297 85.7026 31.6459 85.3384 31.6549H81.4132V31.6555Z" fill="#001646"/>
<path d="M93.1511 33.438C93.1511 33.7416 93.1325 34.086 92.9261 34.3476C92.8049 34.5138 92.5619 34.7028 92.1341 34.7028C91.7933 34.7028 91.5527 34.5654 91.3979 34.4124C91.1501 34.1394 91.135 33.7668 91.135 33.4926V30.4506C91.135 30.1782 91.1224 29.8782 90.9874 29.6058C90.8062 29.2326 90.4672 29.0556 90.0634 29.0556C89.7886 29.0556 89.527 29.1336 89.3242 29.2806C88.8292 29.6676 88.8184 30.2436 88.8184 30.6546V33.5052C88.8064 33.81 88.8064 34.1394 88.5712 34.3956C88.381 34.602 88.1026 34.7028 87.8278 34.7028C87.6664 34.7028 87.5362 34.6722 87.4732 34.6512C86.8546 34.4508 86.845 33.8658 86.8276 33.492V28.6128C86.8276 28.2684 86.845 27.9108 87.1732 27.6378C87.2974 27.5472 87.502 27.432 87.814 27.432C87.8818 27.432 88.0366 27.432 88.2262 27.498C88.6924 27.6936 88.7602 28.0962 88.8184 28.3524C89.0344 28.0464 89.5732 27.3414 90.7246 27.3414C91.3978 27.3414 91.8329 27.5304 92.1701 27.7506C93.0977 28.4226 93.1511 29.331 93.1511 29.952V33.438Z" fill="#001646"/>
<path d="M94.3841 26.7073C94.1765 26.5549 93.9851 26.2969 93.9851 25.8841C93.9851 25.2655 94.4483 24.8179 95.0399 24.8179C95.8421 24.8179 96.3053 25.5277 96.3053 26.4019C96.3053 28.0105 95.0315 29.0641 94.4675 29.0641C94.2197 29.0641 94.0829 28.8541 94.0829 28.6669C94.0829 28.4923 94.1531 28.4371 94.4261 28.2415C95.0387 27.8197 95.1089 27.2557 95.1533 26.9539C94.9157 26.9293 94.6403 26.8993 94.3841 26.7073Z" fill="#001646"/>
<path d="M101.315 29.3365C101.145 29.1079 100.909 28.7899 100.129 28.7899C99.5144 28.7899 99.155 29.0425 99.155 29.3953C99.155 29.7961 99.5978 29.9311 100.284 30.1231C100.509 30.2047 100.764 30.2767 101.005 30.3439C102.051 30.6565 103.23 30.9961 103.23 32.5063C103.23 33.3475 102.724 34.7857 100.181 34.7857C98.1236 34.7857 97.019 33.8377 97.019 33.0187C97.019 32.4925 97.4006 32.0965 97.9184 32.0965C98.3972 32.0965 98.6168 32.3989 98.828 32.7139C98.9474 32.8873 99.224 33.3019 100.159 33.3019C100.799 33.3019 101.173 33.0709 101.173 32.6431C101.173 32.2309 100.799 32.1109 100.473 32.0113C100.296 31.9573 99.389 31.7125 99.1988 31.6459C98.4698 31.4245 97.2356 31.0351 97.2356 29.6575C97.2356 29.2951 97.2998 28.7173 97.7606 28.2151C98.363 27.5305 99.3248 27.3247 100.235 27.3247C101.97 27.3247 102.953 28.1629 102.953 28.8481C102.953 29.3491 102.514 29.7403 102.017 29.7403C101.594 29.7409 101.434 29.5213 101.315 29.3365Z" fill="#001646"/>
<path d="M24.3305 55.9146C24.3305 57.9594 22.6757 59.6238 20.6249 59.6238H18.8597C16.8107 59.6238 15.1475 57.96 15.1475 55.9146V52.4658H24.3305V55.9146Z" fill="#001646"/>
<path d="M31.6817 19.9038C31.6637 13.9434 27.2627 9.01024 21.5591 8.14444C20.9729 8.04904 20.3615 8.00164 19.7423 8.00164C19.1207 8.00164 18.5105 8.04904 17.9117 8.14444C12.2153 9.01024 7.81785 13.9386 7.80105 19.8864V19.9758C7.80105 22.4604 8.54145 25.1088 9.76365 27.7098C10.9889 30.3078 12.6803 32.8296 14.4311 35.028C16.3349 37.416 18.2963 39.42 19.7441 40.7994C20.4149 40.1586 21.1913 39.3804 22.0229 38.4954C24.5969 35.7768 27.6629 31.9794 29.5889 27.9624C30.8825 25.284 31.6787 22.5396 31.6793 19.9818L31.6817 19.9038ZM38.8769 19.941V20.0484C38.8613 24.0168 37.6907 27.7542 36.0773 31.0992C34.4525 34.4526 32.3567 37.4502 30.2855 39.9948C27.1397 43.863 24.0515 46.6698 22.7063 47.8266L22.6631 47.8662L22.5989 47.919L22.5845 47.9328C22.2407 48.2202 22.0433 48.3006 22.0145 48.315V48.3138C20.5307 49.1892 18.6665 49.1364 17.2271 48.1758C17.1185 48.1032 16.9769 48.0096 16.8131 47.862L16.7831 47.8386C15.8735 47.0592 14.1839 45.5274 12.2129 43.4406C9.32745 40.3794 5.83605 36.129 3.40125 31.0998C1.79385 27.7614 0.634654 24.0528 0.600454 20.085L0.599854 19.941C0.602854 10.3578 7.62525 2.43244 16.8239 1.02124C17.7749 0.873636 18.7499 0.801636 19.7429 0.801636C20.7263 0.801636 21.7025 0.873636 22.6517 1.02124C31.8521 2.43244 38.8721 10.3578 38.8769 19.941Z" fill="#001646"/>
</svg>
